<?xml version="1.0" encoding="UTF-8"?>
<svg xmlns="http://www.w3.org/2000/svg" width="72" height="73" viewBox="0 0 72 73" fill="none">
  <g clip-path="url(#clip0_315_14)">
    <path d="M6.90625 34.2079L9.16507 33.8604L6.90625 33.5564V32.8613L10.4031 33.4912H12.8139V34.1862H10.4031L6.90625 34.9247V34.2079Z" fill="#092038"></path>
    <path d="M6.90625 30.907L12.8139 30.2988V31.0373L11.4673 31.1459V31.9495L12.8139 32.0364V32.7748L6.90625 32.1667V30.907ZM7.49268 31.5586L10.8375 31.9278V31.1676L7.49268 31.5586Z" fill="#092038"></path>
    <path d="M6.90625 29.256H9.31711C9.31711 29.2343 6.90625 28.6262 6.90625 28.6262V27.9529L9.55602 28.6262L12.8139 27.8877V28.561L9.90354 29.2343C9.90354 29.256 12.8139 29.256 12.8139 29.256V29.9293H6.90625V29.256Z" fill="#092038"></path>
    <path d="M6.90625 26.7368H12.8139V27.4318H6.90625V26.7368Z" fill="#092038"></path>
    <path d="M9.81666 24.4779C9.92526 24.2824 10.1642 24.1304 10.49 24.1304H12.8139V24.8254H10.3814C10.2293 24.8254 10.1207 24.8906 10.1207 24.9991V25.477H12.8139V26.1503H6.90625V24.6951C6.90625 24.4127 7.16688 24.1521 7.44924 24.1521H9.20851C9.51259 24.1521 9.72978 24.2824 9.81666 24.4779ZM7.66643 24.8254C7.57955 24.8254 7.49268 24.8906 7.49268 24.9991V25.477H9.51259V24.9991C9.51259 24.9123 9.44743 24.8254 9.33883 24.8254H7.66643Z" fill="#092038"></path>
    <path d="M7.45142 20.5249H8.95007V21.2199H7.49486V21.8281H12.2297V21.2199H10.6876V20.5249H12.2514C12.5555 20.5249 12.7944 20.7638 12.7944 21.0679V21.9801C12.7944 22.2625 12.5555 22.5231 12.2514 22.5231H7.42971C7.12563 22.5231 6.88672 22.2625 6.88672 21.9801V21.0679C6.90844 20.7638 7.14735 20.5249 7.45142 20.5249Z" fill="#092038"></path>
    <path d="M7.44924 17.6797H12.2927C12.575 17.6797 12.8139 17.9186 12.8139 18.2227V19.3738C12.8139 19.6779 12.575 19.9168 12.2927 19.9168H7.44924C7.16688 19.9168 6.90625 19.6779 6.90625 19.3738V18.2227C6.90625 17.9403 7.14516 17.6797 7.44924 17.6797ZM7.49268 18.3747V19.2652H12.2275V18.3747H7.49268Z" fill="#092038"></path>
    <path d="M6.90625 16.4635H9.23023V15.6381H6.90625V14.9648H12.8139V15.6381H9.83838V16.4635H12.8139V17.1368H6.90625V16.4635Z" fill="#092038"></path>
    <path d="M6.90625 12.7275H7.49268V13.7049H9.25195V12.7493L9.88182 12.8361V13.7049H12.2275V12.7275H12.8139V14.3999H6.90625V12.7275Z" fill="#092038"></path>
    <path d="M6.90625 9.99072H12.8139V11.055L7.53611 11.598H12.8139V12.2061H6.90625V11.1201L12.2058 10.5554H6.90625V9.99072Z" fill="#092038"></path>
    <path d="M1.36833 6.27694L2.69321 4.32219H0V0.043457H17.3756C17.8968 0.195493 18.2878 0.673321 18.3964 1.15115L18.4615 44.5683H1.32489L1.36833 6.27694ZM13.9439 40.2679L13.9005 4.32219H5.84253V40.2679H13.9439Z" fill="#092038"></path>
    <path d="M49.8465 1.15113V29.0606C49.8465 34.295 49.3252 36.9014 47.4574 39.5511C44.851 43.2652 40.051 44.5683 35.3379 44.5683H25.0646L24.804 4.30045H22.5234V0.0217195H28.2357C28.7569 0.173756 29.1262 0.651584 29.2565 1.12941L29.4737 28.4959L34.9687 26.867V4.27873H32.8402V0H38.3352C38.8565 0.152036 39.2257 0.629864 39.356 1.10769L39.3995 28.648C39.3995 29.1258 39.2257 29.6036 38.3786 29.8208L29.5388 32.514L29.604 40.2027L35.4682 40.1376C38.6827 40.1376 41.832 39.2905 43.8302 36.5756C45.0031 34.9466 45.3071 32.8833 45.3071 28.9955V4.27873H43.0266L43.07 0H48.6954C49.2167 0.195475 49.5859 0.673303 49.8465 1.15113Z" fill="#092038"></path>
    <path d="M67.1577 4.32219H54.9297V0.043457H70.6546C71.1758 0.195493 71.5451 0.673321 71.7188 1.15115V44.5683H67.1577V4.32219ZM55.1469 9.20907H59.6862V44.5683H55.1469V9.20907Z" fill="#092038"></path>
    <path d="M6.16739 52.7129H0.0859375V49.2812H9.38186C9.6425 49.3681 9.83797 49.607 9.92485 49.846V72.2822H6.16739V52.7129ZM0.194535 54.3202H3.90856V72.3039H0.194535V54.3202Z" fill="#092038"></path>
    <path d="M11.3359 68.8507H12.726C12.9432 68.8507 13.1169 68.829 13.1169 68.4598V52.7349H11.3577V49.3032H16.288C16.5486 49.3901 16.7441 49.629 16.831 49.8679V69.8281C16.831 71.6308 15.7015 72.3041 14.3984 72.3041H11.3359V68.8507Z" fill="#092038"></path>
    <path d="M34.0329 49.8677V64.2242C34.0329 66.8306 33.7939 68.1989 32.8817 69.5672C31.5351 71.6088 28.9505 72.2821 26.127 72.2821H19.003L18.8727 52.7129H18.0039V49.2812H22.0003C22.2609 49.3681 22.4564 49.607 22.5433 49.8459L22.6953 62.7907L24.6283 62.2695V52.6912H23.8247V49.2595H27.6473C27.908 49.3464 28.1035 49.5853 28.1903 49.8242L28.2338 63.9853C28.2555 64.2242 28.1686 64.4197 27.7342 64.5283L22.6953 65.9183L22.7387 68.7853L26.3225 68.7201C27.5605 68.6984 28.9505 68.4378 29.7759 67.1998C30.232 66.5048 30.2537 65.5925 30.2537 64.1591V52.6695H29.4718V49.2378H33.4247C33.7288 49.3681 33.9025 49.6287 34.0329 49.8677Z" fill="#092038"></path>
    <path d="M45.9811 68.612V72.3043H40.9857V68.8509H42.2888L42.2019 53.2998C42.2019 52.8654 42.0065 52.6265 41.6807 52.6047C41.3332 52.583 41.116 52.8002 40.4861 53.5604C40.3124 53.7776 40.1169 53.9948 40.0083 54.1685L39.2264 72.3043H35.4255L36.4897 53.9948L37.4454 52.7568H35.2734V49.3034H39.0309C39.1829 49.3903 39.4001 49.9115 39.487 50.3025L39.5522 50.5197C40.5078 49.5206 41.4635 49.1079 42.7015 49.1079H42.7232C44.6345 49.1079 45.8725 50.3242 45.8725 52.8437L45.9811 68.612Z" fill="#092038"></path>
    <path d="M52.1055 70.1102H54.0168L52.5181 60.5536C52.3009 59.207 52.3227 58.1862 52.6702 57.2957C53.0611 56.2749 53.9299 55.5147 54.5815 55.0369L54.7987 54.8849L52.6919 49.3681L52.7353 49.2812H55.1028L58.5779 58.2731L60.3371 51.5618V51.4966H58.5996V49.2812C58.5779 49.2812 62.0747 49.2812 62.0747 49.2812C62.2702 49.3464 62.4656 49.5419 62.5091 49.7591V51.4966C62.4874 51.6704 62.3788 52.0396 62.0747 53.1039L59.7507 61.2704L63.0955 72.1518V72.3039H60.7281L57.7525 62.6387L55.7326 57.0134C54.7118 57.5998 54.3426 58.3383 54.6684 60.0975L56.5362 70.6532V72.3039H52.1272V70.1102H52.1055Z" fill="#092038"></path>
    <path d="M66.482 72.1953L69.6096 51.4532H64.1797V47.0225H66.5905V49.2378H71.4557C71.6946 49.2813 71.8684 49.4985 71.9553 49.7591L71.9987 51.1709L68.8277 72.2822H66.482V72.1953Z" fill="#092038"></path>
  </g>
  <defs>
    <clipPath id="clip0_315_14">
      <rect width="72" height="72.3041" fill="white"></rect>
    </clipPath>
  </defs>
</svg>
